<?xml version="1.0" standalone="no"?>
<!DOCTYPE svg PUBLIC "-//W3C//DTD SVG 20010904//EN"
 "http://www.w3.org/TR/2001/REC-SVG-20010904/DTD/svg10.dtd">
<svg version="1.0" xmlns="http://www.w3.org/2000/svg"
 width="200.000000pt" height="200.000000pt" viewBox="0 0 200.000000 200.000000"
 preserveAspectRatio="xMidYMid meet">

<g transform="translate(0.000000,200.000000) scale(0.100000,-0.100000)"
fill="#000000" stroke="none">
<path d="M745 1208 c-35 -19 -55 -52 -55 -91 0 -31 7 -46 35 -74 32 -32 40
-35 73 -30 47 8 92 55 92 97 0 81 -79 135 -145 98z m18 -30 c-13 -12 -25 -19
-29 -15 -10 10 16 37 34 37 13 0 12 -4 -5 -22z m57 -13 c16 -19 6 -45 -18 -45
-29 0 -48 26 -32 45 16 19 34 19 50 0z m50 -27 c0 -17 -3 -18 -15 -8 -8 7 -15
21 -15 32 0 17 3 18 15 8 8 -7 15 -21 15 -32z m-138 -63 c4 -20 3 -23 -8 -14
-15 12 -20 54 -5 45 5 -3 11 -17 13 -31z m68 25 c18 -11 3 -43 -23 -48 -17 -4
-41 33 -32 48 8 13 35 13 55 0z m73 -10 c-3 -12 -8 -19 -11 -16 -5 6 5 36 12
36 2 0 2 -9 -1 -20z m-28 -29 c6 -10 -25 -31 -46 -31 -8 0 -5 7 6 20 20 22 31
25 40 11z"/>
<path d="M987 1209 c-23 -13 -47 -62 -47 -95 0 -34 59 -94 93 -94 66 0 109 42
109 107 0 69 -92 118 -155 82z m46 -37 c-22 -21 -42 -34 -48 -29 -12 10 48 67
71 67 10 0 2 -13 -23 -38z m-51 -4 c-7 -7 -12 -8 -12 -2 0 14 12 26 19 19 2
-3 -1 -11 -7 -17z m123 12 c3 -5 1 -10 -5 -10 -6 0 -8 -5 -5 -10 4 -6 10 -8
15 -5 17 10 21 -15 9 -57 l-12 -43 -8 30 c-6 28 -7 28 -8 5 -2 -45 -13 -52
-61 -41 -53 12 -60 19 -66 66 -4 37 -4 38 14 22 23 -21 32 -21 32 -3 0 33 79
71 95 46z"/>
<path d="M1051 1142 c-6 -10 -7 -28 -4 -40 4 -17 1 -22 -13 -23 -15 0 -15 -2
-4 -6 8 -3 19 -11 23 -17 5 -6 7 7 4 30 -6 50 6 75 22 48 11 -21 15 -15 5 10
-8 21 -21 20 -33 -2z"/>
<path d="M980 1090 c8 -5 20 -10 25 -10 6 0 3 5 -5 10 -8 5 -19 10 -25 10 -5
0 -3 -5 5 -10z"/>
<path d="M1264 1201 c-56 -24 -73 -113 -30 -156 32 -32 69 -40 107 -25 90 38
75 173 -21 185 -19 3 -45 1 -56 -4z m46 -13 c0 -10 2 -10 8 -1 4 7 13 9 21 4
9 -6 7 -10 -10 -14 -13 -3 -30 -1 -38 6 -14 11 -14 10 -2 -5 9 -13 10 -18 2
-18 -13 0 -60 -50 -61 -64 0 -5 9 3 21 18 11 14 25 24 30 21 5 -4 9 -1 9 4 0
23 20 9 39 -26 11 -21 20 -33 21 -28 0 6 -9 24 -19 42 -17 27 -18 32 -5 37 18
7 54 8 54 2 0 -2 3 -13 7 -23 7 -17 6 -17 -22 0 l-30 18 28 -23 c30 -26 34
-53 13 -81 -14 -18 -14 -18 -19 0 -4 14 -5 14 -6 -4 -1 -25 -52 -46 -59 -25
-2 7 -8 9 -13 6 -17 -10 -48 26 -55 63 -4 21 -2 44 6 58 19 35 80 60 80 33z"/>
<path d="M1282 1070 c0 -14 2 -19 5 -12 2 6 2 18 0 25 -3 6 -5 1 -5 -13z"/>
<path d="M100 860 c0 -47 4 -80 10 -80 6 0 10 14 10 30 0 22 5 30 18 30 26 0
62 29 62 50 0 29 -28 50 -66 50 l-34 0 0 -80z m74 44 c8 -21 -11 -44 -35 -44
-14 0 -19 7 -19 30 0 25 4 30 24 30 13 0 27 -7 30 -16z"/>
<path d="M280 860 l0 -80 48 2 c43 1 44 2 10 5 -34 4 -38 7 -38 34 0 24 4 29
25 29 14 0 25 5 25 10 0 6 -11 10 -25 10 -20 0 -25 5 -25 25 0 22 4 25 35 25
19 0 35 5 35 10 0 6 -20 10 -45 10 l-45 0 0 -80z"/>
<path d="M470 860 l0 -80 45 0 c65 0 91 29 86 95 -3 34 -47 65 -92 65 l-39 0
0 -80z m92 43 c26 -23 24 -78 -4 -97 -12 -9 -33 -16 -45 -16 -22 0 -23 4 -23
65 0 64 1 65 27 65 14 0 35 -7 45 -17z"/>
<path d="M630 860 l0 -80 48 1 c44 2 45 2 12 8 -29 5 -36 11 -38 34 -3 23 0
27 22 27 14 0 26 5 26 10 0 6 -11 10 -25 10 -20 0 -25 5 -25 25 0 22 4 25 35
25 19 0 35 5 35 10 0 6 -20 10 -45 10 l-45 0 0 -80z"/>
<path d="M760 860 c0 -47 4 -80 10 -80 6 0 10 13 10 29 0 25 5 31 31 36 18 4
35 16 41 31 15 33 -13 64 -59 64 l-33 0 0 -80z m65 30 c0 -18 -6 -26 -22 -28
-20 -3 -23 1 -23 28 0 27 3 31 23 28 16 -2 22 -10 22 -28z"/>
<path d="M912 888 c-11 -29 -25 -65 -31 -80 -7 -20 -7 -28 0 -28 6 0 13 9 16
20 4 15 14 20 39 20 23 0 37 -6 44 -20 6 -11 15 -20 19 -20 5 0 -5 36 -21 80
-17 44 -34 80 -39 80 -4 0 -16 -24 -27 -52z m48 -35 c0 -7 -11 -13 -24 -13
-23 0 -24 2 -13 30 11 28 13 29 24 13 7 -9 13 -23 13 -30z"/>
<path d="M1040 860 c0 -47 4 -80 10 -80 6 0 10 15 10 33 l1 32 28 -32 c15 -18
34 -33 41 -33 8 0 2 13 -16 31 l-29 31 23 15 c24 17 29 52 10 71 -7 7 -27 12
-45 12 l-33 0 0 -80z m65 35 c0 -13 -8 -21 -22 -23 -19 -3 -23 1 -23 23 0 22
4 26 23 23 14 -2 22 -10 22 -23z"/>
<path d="M1150 930 c0 -5 11 -10 25 -10 24 0 25 -2 25 -70 0 -40 4 -70 10 -70
6 0 10 30 10 70 0 68 1 70 25 70 14 0 25 5 25 10 0 6 -27 10 -60 10 -33 0 -60
-4 -60 -10z"/>
<path d="M1306 900 c-3 -22 -9 -58 -12 -80 -3 -22 -2 -40 4 -40 5 0 13 26 18
58 l9 57 22 -55 c11 -30 26 -55 33 -55 7 0 22 25 34 55 17 44 22 50 24 30 6
-62 14 -90 23 -90 7 0 9 15 5 40 -3 22 -9 58 -12 80 -3 22 -10 40 -14 40 -5 0
-19 -27 -31 -60 -12 -33 -24 -60 -28 -60 -3 0 -17 27 -29 60 -13 33 -27 60
-32 60 -5 0 -11 -18 -14 -40z"/>
<path d="M1500 860 l0 -80 53 1 c51 2 51 2 12 8 -34 5 -40 10 -43 34 -3 23 0
27 22 27 14 0 26 5 26 10 0 6 -11 10 -25 10 -20 0 -25 5 -25 25 0 22 4 25 34
25 19 0 38 5 41 10 4 6 -13 10 -44 10 l-51 0 0 -80z"/>
<path d="M1630 860 c0 -47 4 -80 10 -80 6 0 10 26 10 58 l0 57 38 -57 c51 -80
62 -76 62 22 0 91 -17 109 -22 23 l-3 -58 -38 58 c-21 31 -42 57 -47 57 -6 0
-10 -35 -10 -80z"/>
<path d="M1780 930 c0 -5 11 -10 25 -10 24 0 25 -2 25 -70 0 -40 4 -70 10 -70
6 0 10 30 10 70 0 68 1 70 25 70 14 0 25 5 25 10 0 6 -27 10 -60 10 -33 0 -60
-4 -60 -10z"/>
<path d="M220 790 c0 -5 5 -10 10 -10 6 0 10 5 10 10 0 6 -4 10 -10 10 -5 0
-10 -4 -10 -10z"/>
</g>
</svg>
